<svg width="750" height="147" viewBox="0 0 750 147" fill="none" xmlns="http://www.w3.org/2000/svg">
<path d="M27.1033 62.896C22.3673 62.896 18.1006 61.8933 14.3033 59.888C10.5486 57.8827 7.58325 55.1093 5.40725 51.568C3.27392 48.0267 2.20725 44.0373 2.20725 39.6C2.20725 35.1627 3.27392 31.1733 5.40725 27.632C7.58325 24.0907 10.5486 21.3173 14.3033 19.312C18.1006 17.3067 22.3673 16.304 27.1033 16.304C31.8393 16.304 36.0846 17.3067 39.8393 19.312C43.6366 21.3173 46.6019 24.0907 48.7353 27.632C50.9113 31.1733 51.9993 35.1627 51.9993 39.6C51.9993 44.0373 50.9113 48.0267 48.7353 51.568C46.6019 55.1093 43.6366 57.8827 39.8393 59.888C36.0846 61.8933 31.8393 62.896 27.1033 62.896ZM27.1033 52.4C29.3646 52.4 31.4126 51.8667 33.2473 50.8C35.0819 49.7333 36.5326 48.24 37.5993 46.32C38.6659 44.3573 39.1993 42.1173 39.1993 39.6C39.1993 37.0827 38.6659 34.864 37.5993 32.944C36.5326 30.9813 35.0819 29.4667 33.2473 28.4C31.4126 27.3333 29.3646 26.8 27.1033 26.8C24.8419 26.8 22.7939 27.3333 20.9593 28.4C19.1246 29.4667 17.6739 30.9813 16.6073 32.944C15.5406 34.864 15.0073 37.0827 15.0073 39.6C15.0073 42.1173 15.5406 44.3573 16.6073 46.32C17.6739 48.24 19.1246 49.7333 20.9593 50.8C22.7939 51.8667 24.8419 52.4 27.1033 52.4ZM70.6683 62.576C67.7669 62.576 64.9083 62.256 62.0923 61.616C59.2763 60.9333 57.0149 60.0587 55.3083 58.992L58.9563 50.672C60.5349 51.6533 62.4123 52.4427 64.5883 53.04C66.7643 53.5947 68.9189 53.872 71.0522 53.872C73.0149 53.872 74.4016 53.68 75.2123 53.296C76.0656 52.8693 76.4923 52.272 76.4923 51.504C76.4923 50.736 75.9803 50.2027 74.9563 49.904C73.9749 49.5627 72.3963 49.2427 70.2203 48.944C67.4469 48.6027 65.0789 48.1547 63.1163 47.6C61.1963 47.0453 59.5323 46.0213 58.1243 44.528C56.7163 43.0347 56.0123 40.944 56.0123 38.256C56.0123 36.0373 56.6736 34.0747 57.9963 32.368C59.3189 30.6187 61.2389 29.2533 63.7563 28.272C66.3163 27.248 69.3669 26.736 72.9083 26.736C75.4256 26.736 77.9216 26.992 80.3963 27.504C82.8709 28.016 84.9403 28.7413 86.6043 29.68L82.9563 37.936C79.8843 36.2293 76.5563 35.376 72.9722 35.376C71.0523 35.376 69.6443 35.6107 68.7483 36.08C67.8523 36.5067 67.4043 37.0827 67.4043 37.808C67.4043 38.6187 67.8949 39.1947 68.8763 39.536C69.8576 39.8347 71.4789 40.1547 73.7403 40.496C76.5989 40.9227 78.9669 41.4133 80.8443 41.968C82.7216 42.5227 84.3429 43.5467 85.7083 45.04C87.1163 46.4907 87.8203 48.5387 87.8203 51.184C87.8203 53.36 87.1589 55.3227 85.8363 57.072C84.5136 58.7787 82.5509 60.1227 79.9483 61.104C77.3883 62.0853 74.2949 62.576 70.6683 62.576ZM463.106 62.576C460.204 62.576 457.346 62.256 454.53 61.616C451.714 60.9333 449.452 60.0587 447.746 58.992L451.394 50.672C452.972 51.6533 454.85 52.4427 457.026 53.04C459.202 53.5947 461.356 53.872 463.49 53.872C465.452 53.872 466.839 53.68 467.65 53.296C468.503 52.8693 468.93 52.272 468.93 51.504C468.93 50.736 468.418 50.2027 467.394 49.904C466.412 49.5627 464.834 49.2427 462.658 48.944C459.884 48.6027 457.516 48.1547 455.554 47.6C453.634 47.0453 451.97 46.0213 450.562 44.528C449.154 43.0347 448.45 40.944 448.45 38.256C448.45 36.0373 449.111 34.0747 450.434 32.368C451.756 30.6187 453.676 29.2533 456.194 28.272C458.754 27.248 461.804 26.736 465.346 26.736C467.863 26.736 470.359 26.992 472.834 27.504C475.308 28.016 477.378 28.7413 479.042 29.68L475.394 37.936C472.322 36.2293 468.994 35.376 465.41 35.376C463.49 35.376 462.082 35.6107 461.186 36.08C460.29 36.5067 459.842 37.0827 459.842 37.808C459.842 38.6187 460.332 39.1947 461.314 39.536C462.295 39.8347 463.916 40.1547 466.178 40.496C469.036 40.9227 471.404 41.4133 473.282 41.968C475.159 42.5227 476.78 43.5467 478.146 45.04C479.554 46.4907 480.258 48.5387 480.258 51.184C480.258 53.36 479.596 55.3227 478.274 57.072C476.951 58.7787 474.988 60.1227 472.386 61.104C469.826 62.0853 466.732 62.576 463.106 62.576ZM500.282 26.736C506.042 26.736 510.436 28.0587 513.466 30.704C516.495 33.3067 518.01 37.3173 518.01 42.736V62H506.682V57.52C504.932 60.8907 501.519 62.576 496.442 62.576C493.754 62.576 491.428 62.1067 489.466 61.168C487.503 60.2293 486.01 58.9707 484.986 57.392C484.004 55.7707 483.514 53.936 483.514 51.888C483.514 48.6027 484.772 46.064 487.29 44.272C489.807 42.4373 493.69 41.52 498.938 41.52H505.85C505.636 37.8507 503.183 36.016 498.49 36.016C496.826 36.016 495.14 36.2933 493.434 36.848C491.727 37.36 490.276 38.0853 489.082 39.024L484.986 30.768C486.906 29.488 489.231 28.5067 491.962 27.824C494.735 27.0987 497.508 26.736 500.282 26.736ZM499.834 54.896C501.242 54.896 502.479 54.5547 503.546 53.872C504.612 53.1893 505.38 52.1867 505.85 50.864V47.856H500.602C497.06 47.856 495.29 49.0293 495.29 51.376C495.29 52.4427 495.695 53.296 496.506 53.936C497.316 54.576 498.426 54.896 499.834 54.896ZM525.685 14.512H537.845V62H525.685V14.512ZM583.06 27.312V55.664C583.06 62.1067 581.31 66.928 577.812 70.128C574.313 73.3707 569.278 74.992 562.708 74.992C559.294 74.992 556.094 74.608 553.108 73.84C550.121 73.072 547.582 71.9413 545.492 70.448L549.908 61.936C551.316 63.088 553.086 63.984 555.22 64.624C557.396 65.3067 559.529 65.648 561.62 65.648C564.82 65.648 567.166 64.944 568.66 63.536C570.153 62.128 570.9 60.0373 570.9 57.264V56.112C568.553 58.8427 565.118 60.208 560.596 60.208C557.524 60.208 554.686 59.5253 552.084 58.16C549.481 56.752 547.412 54.7893 545.876 52.272C544.34 49.712 543.572 46.768 543.572 43.44C543.572 40.1547 544.34 37.2533 545.876 34.736C547.412 32.176 549.481 30.2133 552.084 28.848C554.686 27.44 557.524 26.736 560.596 26.736C565.545 26.736 569.172 28.336 571.476 31.536V27.312H583.06ZM563.476 50.544C565.652 50.544 567.444 49.8827 568.852 48.56C570.302 47.2373 571.028 45.5307 571.028 43.44C571.028 41.3493 570.324 39.664 568.916 38.384C567.508 37.0613 565.694 36.4 563.476 36.4C561.257 36.4 559.422 37.0613 557.972 38.384C556.564 39.664 555.86 41.3493 555.86 43.44C555.86 45.5307 556.585 47.2373 558.036 48.56C559.486 49.8827 561.3 50.544 563.476 50.544ZM605.657 26.736C611.417 26.736 615.811 28.0587 618.841 30.704C621.87 33.3067 623.385 37.3173 623.385 42.736V62H612.057V57.52C610.307 60.8907 606.894 62.576 601.817 62.576C599.129 62.576 596.803 62.1067 594.841 61.168C592.878 60.2293 591.385 58.9707 590.361 57.392C589.379 55.7707 588.889 53.936 588.889 51.888C588.889 48.6027 590.147 46.064 592.665 44.272C595.182 42.4373 599.065 41.52 604.313 41.52H611.225C611.011 37.8507 608.558 36.016 603.865 36.016C602.201 36.016 600.515 36.2933 598.809 36.848C597.102 37.36 595.651 38.0853 594.457 39.024L590.361 30.768C592.281 29.488 594.606 28.5067 597.337 27.824C600.11 27.0987 602.883 26.736 605.657 26.736ZM605.209 54.896C606.617 54.896 607.854 54.5547 608.921 53.872C609.987 53.1893 610.755 52.1867 611.225 50.864V47.856H605.977C602.435 47.856 600.665 49.0293 600.665 51.376C600.665 52.4427 601.07 53.296 601.881 53.936C602.691 54.576 603.801 54.896 605.209 54.896ZM668.424 14.512V62H656.84V58.544C654.579 61.232 651.187 62.576 646.664 62.576C643.507 62.576 640.627 61.8507 638.024 60.4C635.422 58.9067 633.352 56.7947 631.816 54.064C630.323 51.3333 629.576 48.176 629.576 44.592C629.576 41.008 630.323 37.872 631.816 35.184C633.352 32.4533 635.422 30.3627 638.024 28.912C640.627 27.4613 643.507 26.736 646.664 26.736C650.803 26.736 654.003 27.9307 656.264 30.32V14.512H668.424ZM649.224 52.912C651.315 52.912 653.043 52.1867 654.408 50.736C655.774 49.2427 656.456 47.1947 656.456 44.592C656.456 42.032 655.774 40.0267 654.408 38.576C653.086 37.1253 651.358 36.4 649.224 36.4C647.091 36.4 645.342 37.1253 643.976 38.576C642.611 40.0267 641.928 42.032 641.928 44.592C641.928 47.1947 642.611 49.2427 643.976 50.736C645.342 52.1867 647.091 52.912 649.224 52.912ZM693.656 62.576C689.944 62.576 686.594 61.808 683.608 60.272C680.621 58.736 678.274 56.6027 676.568 53.872C674.904 51.1413 674.072 48.048 674.072 44.592C674.072 41.1787 674.904 38.1067 676.568 35.376C678.274 32.6453 680.6 30.5333 683.544 29.04C686.53 27.504 689.901 26.736 693.656 26.736C697.41 26.736 700.781 27.504 703.768 29.04C706.754 30.5333 709.08 32.6453 710.744 35.376C712.408 38.064 713.24 41.136 713.24 44.592C713.24 48.048 712.408 51.1413 710.744 53.872C709.08 56.6027 706.754 58.736 703.768 60.272C700.781 61.808 697.41 62.576 693.656 62.576ZM693.656 52.912C695.789 52.912 697.538 52.1867 698.904 50.736C700.269 49.2427 700.952 47.1947 700.952 44.592C700.952 42.032 700.269 40.0267 698.904 38.576C697.538 37.1253 695.789 36.4 693.656 36.4C691.522 36.4 689.773 37.1253 688.408 38.576C687.042 40.0267 686.36 42.032 686.36 44.592C686.36 47.1947 687.042 49.2427 688.408 50.736C689.773 52.1867 691.522 52.912 693.656 52.912ZM731.481 62.576C728.579 62.576 725.721 62.256 722.905 61.616C720.089 60.9333 717.827 60.0587 716.121 58.992L719.769 50.672C721.347 51.6533 723.225 52.4427 725.401 53.04C727.577 53.5947 729.731 53.872 731.865 53.872C733.827 53.872 735.214 53.68 736.025 53.296C736.878 52.8693 737.305 52.272 737.305 51.504C737.305 50.736 736.793 50.2027 735.769 49.904C734.787 49.5627 733.209 49.2427 731.033 48.944C728.259 48.6027 725.891 48.1547 723.929 47.6C722.009 47.0453 720.345 46.0213 718.937 44.528C717.529 43.0347 716.825 40.944 716.825 38.256C716.825 36.0373 717.486 34.0747 718.809 32.368C720.131 30.6187 722.051 29.2533 724.569 28.272C727.129 27.248 730.179 26.736 733.721 26.736C736.238 26.736 738.734 26.992 741.209 27.504C743.683 28.016 745.753 28.7413 747.417 29.68L743.769 37.936C740.697 36.2293 737.369 35.376 733.785 35.376C731.865 35.376 730.457 35.6107 729.561 36.08C728.665 36.5067 728.217 37.0827 728.217 37.808C728.217 38.6187 728.707 39.1947 729.689 39.536C730.67 39.8347 732.291 40.1547 734.553 40.496C737.411 40.9227 739.779 41.4133 741.657 41.968C743.534 42.5227 745.155 43.5467 746.521 45.04C747.929 46.4907 748.633 48.5387 748.633 51.184C748.633 53.36 747.971 55.3227 746.649 57.072C745.326 58.7787 743.363 60.1227 740.761 61.104C738.201 62.0853 735.107 62.576 731.481 62.576Z" fill="white"/>
<path d="M156.869 26.736C161.136 26.736 164.528 28.016 167.045 30.576C169.605 33.136 170.885 36.9973 170.885 42.16V62H158.725V44.144C158.725 41.712 158.256 39.92 157.317 38.768C156.421 37.616 155.141 37.04 153.477 37.04C151.643 37.04 150.171 37.68 149.061 38.96C147.952 40.24 147.397 42.1813 147.397 44.784V62H135.237V44.144C135.237 39.408 133.488 37.04 129.989 37.04C128.112 37.04 126.619 37.68 125.509 38.96C124.4 40.24 123.845 42.1813 123.845 44.784V62H111.685V27.312H123.269V30.96C124.549 29.552 126.064 28.5067 127.813 27.824C129.605 27.0987 131.547 26.736 133.637 26.736C136.069 26.736 138.245 27.184 140.165 28.08C142.085 28.976 143.643 30.3413 144.837 32.176C146.203 30.4267 147.931 29.0827 150.021 28.144C152.112 27.2053 154.395 26.736 156.869 26.736ZM214.516 44.72C214.516 44.8053 214.452 45.808 214.324 47.728H189.108C189.62 49.52 190.602 50.9067 192.052 51.888C193.546 52.8267 195.402 53.296 197.62 53.296C199.284 53.296 200.714 53.0613 201.908 52.592C203.146 52.1227 204.383 51.3547 205.62 50.288L212.02 56.944C208.65 60.6987 203.722 62.576 197.236 62.576C193.183 62.576 189.62 61.808 186.548 60.272C183.476 58.736 181.087 56.6027 179.38 53.872C177.716 51.1413 176.884 48.048 176.884 44.592C176.884 41.1787 177.695 38.128 179.316 35.44C180.98 32.7093 183.263 30.576 186.164 29.04C189.066 27.504 192.33 26.736 195.956 26.736C199.412 26.736 202.548 27.4613 205.364 28.912C208.18 30.32 210.399 32.3893 212.02 35.12C213.684 37.808 214.516 41.008 214.516 44.72ZM196.02 35.376C194.143 35.376 192.564 35.9093 191.284 36.976C190.047 38.0427 189.258 39.4933 188.916 41.328H203.124C202.783 39.4933 201.972 38.0427 200.692 36.976C199.455 35.9093 197.898 35.376 196.02 35.376ZM220.123 14.512H232.283V62H220.123V14.512ZM262.777 26.736C267.087 26.736 270.543 28.016 273.145 30.576C275.791 33.136 277.113 36.9973 277.113 42.16V62H264.953V44.144C264.953 39.408 263.055 37.04 259.257 37.04C257.167 37.04 255.481 37.7227 254.201 39.088C252.964 40.4533 252.345 42.5013 252.345 45.232V62H240.185V14.512H252.345V30.512C253.668 29.2747 255.225 28.336 257.017 27.696C258.809 27.056 260.729 26.736 262.777 26.736ZM302.656 62.576C298.944 62.576 295.594 61.808 292.608 60.272C289.621 58.736 287.274 56.6027 285.568 53.872C283.904 51.1413 283.072 48.048 283.072 44.592C283.072 41.1787 283.904 38.1067 285.568 35.376C287.274 32.6453 289.6 30.5333 292.544 29.04C295.53 27.504 298.901 26.736 302.656 26.736C306.41 26.736 309.781 27.504 312.768 29.04C315.754 30.5333 318.08 32.6453 319.744 35.376C321.408 38.064 322.24 41.136 322.24 44.592C322.24 48.048 321.408 51.1413 319.744 53.872C318.08 56.6027 315.754 58.736 312.768 60.272C309.781 61.808 306.41 62.576 302.656 62.576ZM302.656 52.912C304.789 52.912 306.538 52.1867 307.904 50.736C309.269 49.2427 309.952 47.1947 309.952 44.592C309.952 42.032 309.269 40.0267 307.904 38.576C306.538 37.1253 304.789 36.4 302.656 36.4C300.522 36.4 298.773 37.1253 297.408 38.576C296.042 40.0267 295.36 42.032 295.36 44.592C295.36 47.1947 296.042 49.2427 297.408 50.736C298.773 52.1867 300.522 52.912 302.656 52.912ZM339.457 31.472C340.694 29.8933 342.294 28.72 344.257 27.952C346.262 27.1413 348.545 26.736 351.105 26.736V37.68C349.995 37.552 349.078 37.488 348.353 37.488C345.75 37.488 343.702 38.192 342.209 39.6C340.758 41.008 340.033 43.1627 340.033 46.064V62H327.873V27.312H339.457V31.472ZM391.266 44.72C391.266 44.8053 391.202 45.808 391.074 47.728H365.858C366.37 49.52 367.352 50.9067 368.802 51.888C370.296 52.8267 372.152 53.296 374.37 53.296C376.034 53.296 377.464 53.0613 378.658 52.592C379.896 52.1227 381.133 51.3547 382.37 50.288L388.77 56.944C385.4 60.6987 380.472 62.576 373.986 62.576C369.933 62.576 366.37 61.808 363.298 60.272C360.226 58.736 357.837 56.6027 356.13 53.872C354.466 51.1413 353.634 48.048 353.634 44.592C353.634 41.1787 354.445 38.128 356.066 35.44C357.73 32.7093 360.013 30.576 362.914 29.04C365.816 27.504 369.08 26.736 372.706 26.736C376.162 26.736 379.298 27.4613 382.114 28.912C384.93 30.32 387.149 32.3893 388.77 35.12C390.434 37.808 391.266 41.008 391.266 44.72ZM372.77 35.376C370.893 35.376 369.314 35.9093 368.034 36.976C366.797 38.0427 366.008 39.4933 365.666 41.328H379.874C379.533 39.4933 378.722 38.0427 377.442 36.976C376.205 35.9093 374.648 35.376 372.77 35.376ZM409.481 62.576C406.579 62.576 403.721 62.256 400.905 61.616C398.089 60.9333 395.827 60.0587 394.121 58.992L397.769 50.672C399.347 51.6533 401.225 52.4427 403.401 53.04C405.577 53.5947 407.731 53.872 409.865 53.872C411.827 53.872 413.214 53.68 414.025 53.296C414.878 52.8693 415.305 52.272 415.305 51.504C415.305 50.736 414.793 50.2027 413.769 49.904C412.787 49.5627 411.209 49.2427 409.033 48.944C406.259 48.6027 403.891 48.1547 401.929 47.6C400.009 47.0453 398.345 46.0213 396.937 44.528C395.529 43.0347 394.825 40.944 394.825 38.256C394.825 36.0373 395.486 34.0747 396.809 32.368C398.131 30.6187 400.051 29.2533 402.569 28.272C405.129 27.248 408.179 26.736 411.721 26.736C414.238 26.736 416.734 26.992 419.209 27.504C421.683 28.016 423.753 28.7413 425.417 29.68L421.769 37.936C418.697 36.2293 415.369 35.376 411.785 35.376C409.865 35.376 408.457 35.6107 407.561 36.08C406.665 36.5067 406.217 37.0827 406.217 37.808C406.217 38.6187 406.707 39.1947 407.689 39.536C408.67 39.8347 410.291 40.1547 412.553 40.496C415.411 40.9227 417.779 41.4133 419.657 41.968C421.534 42.5227 423.155 43.5467 424.521 45.04C425.929 46.4907 426.633 48.5387 426.633 51.184C426.633 53.36 425.971 55.3227 424.649 57.072C423.326 58.7787 421.363 60.1227 418.761 61.104C416.201 62.0853 413.107 62.576 409.481 62.576Z" fill="#FF3D3D"/>
<path d="M40.768 83.512V131H29.184V127.544C26.9227 130.232 23.5307 131.576 19.008 131.576C15.8507 131.576 12.9707 130.851 10.368 129.4C7.76533 127.907 5.696 125.795 4.16 123.064C2.66667 120.333 1.92 117.176 1.92 113.592C1.92 110.008 2.66667 106.872 4.16 104.184C5.696 101.453 7.76533 99.3627 10.368 97.912C12.9707 96.4613 15.8507 95.736 19.008 95.736C23.1467 95.736 26.3467 96.9307 28.608 99.32V83.512H40.768ZM21.568 121.912C23.6587 121.912 25.3867 121.187 26.752 119.736C28.1173 118.243 28.8 116.195 28.8 113.592C28.8 111.032 28.1173 109.027 26.752 107.576C25.4293 106.125 23.7013 105.4 21.568 105.4C19.4347 105.4 17.6853 106.125 16.32 107.576C14.9547 109.027 14.272 111.032 14.272 113.592C14.272 116.195 14.9547 118.243 16.32 119.736C17.6853 121.187 19.4347 121.912 21.568 121.912ZM84.0475 113.72C84.0475 113.805 83.9835 114.808 83.8555 116.728H58.6395C59.1515 118.52 60.1328 119.907 61.5835 120.888C63.0768 121.827 64.9328 122.296 67.1515 122.296C68.8155 122.296 70.2448 122.061 71.4395 121.592C72.6768 121.123 73.9142 120.355 75.1515 119.288L81.5515 125.944C78.1808 129.699 73.2528 131.576 66.7675 131.576C62.7142 131.576 59.1515 130.808 56.0795 129.272C53.0075 127.736 50.6182 125.603 48.9115 122.872C47.2475 120.141 46.4155 117.048 46.4155 113.592C46.4155 110.179 47.2262 107.128 48.8475 104.44C50.5115 101.709 52.7942 99.576 55.6955 98.04C58.5968 96.504 61.8608 95.736 65.4875 95.736C68.9435 95.736 72.0795 96.4613 74.8955 97.912C77.7115 99.32 79.9302 101.389 81.5515 104.12C83.2155 106.808 84.0475 110.008 84.0475 113.72ZM65.5515 104.376C63.6742 104.376 62.0955 104.909 60.8155 105.976C59.5782 107.043 58.7888 108.493 58.4475 110.328H72.6555C72.3142 108.493 71.5035 107.043 70.2235 105.976C68.9862 104.909 67.4288 104.376 65.5515 104.376ZM108.855 86.2H121.527V120.952H142.903V131H108.855V86.2ZM147.342 96.312H159.502V131H147.342V96.312ZM153.422 92.472C151.203 92.472 149.411 91.8533 148.046 90.616C146.68 89.3787 145.998 87.8427 145.998 86.008C145.998 84.1733 146.68 82.6373 148.046 81.4C149.411 80.1627 151.203 79.544 153.422 79.544C155.64 79.544 157.432 80.1413 158.798 81.336C160.163 82.488 160.846 83.9813 160.846 85.816C160.846 87.736 160.163 89.336 158.798 90.616C157.432 91.8533 155.64 92.472 153.422 92.472ZM212.588 95.736C216.855 95.736 220.247 97.016 222.764 99.576C225.324 102.136 226.604 105.997 226.604 111.16V131H214.444V113.144C214.444 110.712 213.975 108.92 213.036 107.768C212.14 106.616 210.86 106.04 209.196 106.04C207.361 106.04 205.889 106.68 204.78 107.96C203.671 109.24 203.116 111.181 203.116 113.784V131H190.956V113.144C190.956 108.408 189.207 106.04 185.708 106.04C183.831 106.04 182.337 106.68 181.228 107.96C180.119 109.24 179.564 111.181 179.564 113.784V131H167.404V96.312H178.988V99.96C180.268 98.552 181.783 97.5067 183.532 96.824C185.324 96.0987 187.265 95.736 189.356 95.736C191.788 95.736 193.964 96.184 195.884 97.08C197.804 97.976 199.361 99.3413 200.556 101.176C201.921 99.4267 203.649 98.0827 205.74 97.144C207.831 96.2053 210.113 95.736 212.588 95.736ZM270.235 113.72C270.235 113.805 270.171 114.808 270.043 116.728H244.827C245.339 118.52 246.32 119.907 247.771 120.888C249.264 121.827 251.12 122.296 253.339 122.296C255.003 122.296 256.432 122.061 257.627 121.592C258.864 121.123 260.102 120.355 261.339 119.288L267.739 125.944C264.368 129.699 259.44 131.576 252.955 131.576C248.902 131.576 245.339 130.808 242.267 129.272C239.195 127.736 236.806 125.603 235.099 122.872C233.435 120.141 232.603 117.048 232.603 113.592C232.603 110.179 233.414 107.128 235.035 104.44C236.699 101.709 238.982 99.576 241.883 98.04C244.784 96.504 248.048 95.736 251.675 95.736C255.131 95.736 258.267 96.4613 261.083 97.912C263.899 99.32 266.118 101.389 267.739 104.12C269.403 106.808 270.235 110.008 270.235 113.72ZM251.739 104.376C249.862 104.376 248.283 104.909 247.003 105.976C245.766 107.043 244.976 108.493 244.635 110.328H258.843C258.502 108.493 257.691 107.043 256.411 105.976C255.174 104.909 253.616 104.376 251.739 104.376ZM275.842 96.312H288.002V131H275.842V96.312ZM281.922 92.472C279.703 92.472 277.911 91.8533 276.546 90.616C275.18 89.3787 274.498 87.8427 274.498 86.008C274.498 84.1733 275.18 82.6373 276.546 81.4C277.911 80.1627 279.703 79.544 281.922 79.544C284.14 79.544 285.932 80.1413 287.298 81.336C288.663 82.488 289.346 83.9813 289.346 85.816C289.346 87.736 288.663 89.336 287.298 90.616C285.932 91.8533 284.14 92.472 281.922 92.472ZM307.488 100.472C308.725 98.8933 310.325 97.72 312.288 96.952C314.293 96.1413 316.576 95.736 319.136 95.736V106.68C318.027 106.552 317.109 106.488 316.384 106.488C313.781 106.488 311.733 107.192 310.24 108.6C308.789 110.008 308.064 112.163 308.064 115.064V131H295.904V96.312H307.488V100.472ZM338.688 95.736C344.448 95.736 348.843 97.0587 351.872 99.704C354.901 102.307 356.416 106.317 356.416 111.736V131H345.088V126.52C343.339 129.891 339.925 131.576 334.848 131.576C332.16 131.576 329.835 131.107 327.872 130.168C325.909 129.229 324.416 127.971 323.392 126.392C322.411 124.771 321.92 122.936 321.92 120.888C321.92 117.603 323.179 115.064 325.696 113.272C328.213 111.437 332.096 110.52 337.344 110.52H344.256C344.043 106.851 341.589 105.016 336.896 105.016C335.232 105.016 333.547 105.293 331.84 105.848C330.133 106.36 328.683 107.085 327.488 108.024L323.392 99.768C325.312 98.488 327.637 97.5067 330.368 96.824C333.141 96.0987 335.915 95.736 338.688 95.736ZM338.24 123.896C339.648 123.896 340.885 123.555 341.952 122.872C343.019 122.189 343.787 121.187 344.256 119.864V116.856H339.008C335.467 116.856 333.696 118.029 333.696 120.376C333.696 121.443 334.101 122.296 334.912 122.936C335.723 123.576 336.832 123.896 338.24 123.896ZM418.173 113.72C418.173 113.805 418.109 114.808 417.981 116.728H392.765C393.277 118.52 394.258 119.907 395.708 120.888C397.202 121.827 399.058 122.296 401.277 122.296C402.941 122.296 404.37 122.061 405.565 121.592C406.802 121.123 408.039 120.355 409.277 119.288L415.677 125.944C412.306 129.699 407.378 131.576 400.893 131.576C396.839 131.576 393.277 130.808 390.205 129.272C387.133 127.736 384.743 125.603 383.036 122.872C381.373 120.141 380.541 117.048 380.541 113.592C380.541 110.179 381.351 107.128 382.973 104.44C384.637 101.709 386.919 99.576 389.821 98.04C392.722 96.504 395.986 95.736 399.613 95.736C403.069 95.736 406.205 96.4613 409.021 97.912C411.837 99.32 414.055 101.389 415.677 104.12C417.341 106.808 418.173 110.008 418.173 113.72ZM399.677 104.376C397.799 104.376 396.221 104.909 394.941 105.976C393.703 107.043 392.914 108.493 392.573 110.328H406.781C406.439 108.493 405.629 107.043 404.349 105.976C403.111 104.909 401.554 104.376 399.677 104.376ZM453.988 100.472C455.225 98.8933 456.825 97.72 458.788 96.952C460.793 96.1413 463.076 95.736 465.636 95.736V106.68C464.527 106.552 463.609 106.488 462.884 106.488C460.281 106.488 458.233 107.192 456.74 108.6C455.289 110.008 454.564 112.163 454.564 115.064V131H442.404V96.312H453.988V100.472ZM505.798 113.72C505.798 113.805 505.734 114.808 505.606 116.728H480.39C480.902 118.52 481.883 119.907 483.333 120.888C484.827 121.827 486.683 122.296 488.902 122.296C490.566 122.296 491.995 122.061 493.19 121.592C494.427 121.123 495.664 120.355 496.902 119.288L503.302 125.944C499.931 129.699 495.003 131.576 488.518 131.576C484.464 131.576 480.902 130.808 477.83 129.272C474.758 127.736 472.368 125.603 470.661 122.872C468.998 120.141 468.166 117.048 468.166 113.592C468.166 110.179 468.976 107.128 470.598 104.44C472.262 101.709 474.544 99.576 477.446 98.04C480.347 96.504 483.611 95.736 487.238 95.736C490.694 95.736 493.83 96.4613 496.646 97.912C499.462 99.32 501.68 101.389 503.302 104.12C504.966 106.808 505.798 110.008 505.798 113.72ZM487.302 104.376C485.424 104.376 483.846 104.909 482.566 105.976C481.328 107.043 480.539 108.493 480.198 110.328H494.406C494.064 108.493 493.254 107.043 491.974 105.976C490.736 104.909 489.179 104.376 487.302 104.376ZM548.716 96.312V124.664C548.716 131.107 546.967 135.928 543.468 139.128C539.969 142.371 534.935 143.992 528.364 143.992C524.951 143.992 521.751 143.608 518.764 142.84C515.777 142.072 513.239 140.941 511.148 139.448L515.564 130.936C516.972 132.088 518.743 132.984 520.876 133.624C523.052 134.307 525.185 134.648 527.276 134.648C530.476 134.648 532.823 133.944 534.316 132.536C535.809 131.128 536.556 129.037 536.556 126.264V125.112C534.209 127.843 530.775 129.208 526.252 129.208C523.18 129.208 520.343 128.525 517.74 127.16C515.137 125.752 513.068 123.789 511.532 121.272C509.996 118.712 509.228 115.768 509.228 112.44C509.228 109.155 509.996 106.253 511.532 103.736C513.068 101.176 515.137 99.2133 517.74 97.848C520.343 96.44 523.18 95.736 526.252 95.736C531.201 95.736 534.828 97.336 537.132 100.536V96.312H548.716ZM529.132 119.544C531.308 119.544 533.1 118.883 534.508 117.56C535.959 116.237 536.684 114.531 536.684 112.44C536.684 110.349 535.98 108.664 534.572 107.384C533.164 106.061 531.351 105.4 529.132 105.4C526.913 105.4 525.079 106.061 523.628 107.384C522.22 108.664 521.516 110.349 521.516 112.44C521.516 114.531 522.241 116.237 523.692 117.56C525.143 118.883 526.956 119.544 529.132 119.544ZM556.529 96.312H568.689V131H556.529V96.312ZM562.609 92.472C560.39 92.472 558.598 91.8533 557.233 90.616C555.868 89.3787 555.185 87.8427 555.185 86.008C555.185 84.1733 555.868 82.6373 557.233 81.4C558.598 80.1627 560.39 79.544 562.609 79.544C564.828 79.544 566.62 80.1413 567.985 81.336C569.35 82.488 570.033 83.9813 570.033 85.816C570.033 87.736 569.35 89.336 567.985 90.616C566.62 91.8533 564.828 92.472 562.609 92.472ZM591.376 95.736C597.136 95.736 601.53 97.0587 604.56 99.704C607.589 102.307 609.104 106.317 609.104 111.736V131H597.776V126.52C596.026 129.891 592.613 131.576 587.536 131.576C584.848 131.576 582.522 131.107 580.56 130.168C578.597 129.229 577.104 127.971 576.08 126.392C575.098 124.771 574.608 122.936 574.608 120.888C574.608 117.603 575.866 115.064 578.384 113.272C580.901 111.437 584.784 110.52 590.032 110.52H596.944C596.73 106.851 594.277 105.016 589.583 105.016C587.92 105.016 586.234 105.293 584.528 105.848C582.821 106.36 581.37 107.085 580.176 108.024L576.08 99.768C578 98.488 580.325 97.5067 583.056 96.824C585.829 96.0987 588.602 95.736 591.376 95.736ZM590.928 123.896C592.336 123.896 593.573 123.555 594.64 122.872C595.706 122.189 596.474 121.187 596.944 119.864V116.856H591.696C588.154 116.856 586.384 118.029 586.384 120.376C586.384 121.443 586.789 122.296 587.6 122.936C588.41 123.576 589.52 123.896 590.928 123.896ZM597.712 92.6C596.56 92.6 595.514 92.3867 594.576 91.96C593.68 91.4907 592.677 90.872 591.568 90.104C590.757 89.5493 590.138 89.1653 589.712 88.952C589.328 88.7387 588.922 88.632 588.496 88.632C587.642 88.632 586.96 88.9307 586.448 89.528C585.936 90.1253 585.637 90.9573 585.552 92.024H579.6C579.685 88.9093 580.453 86.4347 581.904 84.6C583.354 82.7653 585.296 81.848 587.728 81.848C588.88 81.848 589.904 82.0613 590.8 82.488C591.696 82.9147 592.72 83.512 593.872 84.28C594.682 84.8347 595.28 85.2187 595.664 85.432C596.09 85.6453 596.517 85.752 596.944 85.752C597.797 85.752 598.48 85.4747 598.992 84.92C599.504 84.3227 599.802 83.5333 599.888 82.552H605.84C605.754 85.5813 604.986 88.0133 603.536 89.848C602.085 91.6827 600.144 92.6 597.712 92.6ZM634.687 131.576C630.975 131.576 627.626 130.808 624.639 129.272C621.652 127.736 619.306 125.603 617.599 122.872C615.935 120.141 615.103 117.048 615.103 113.592C615.103 110.179 615.935 107.107 617.599 104.376C619.306 101.645 621.631 99.5333 624.575 98.04C627.562 96.504 630.932 95.736 634.687 95.736C638.442 95.736 641.812 96.504 644.799 98.04C647.786 99.5333 650.111 101.645 651.775 104.376C653.439 107.064 654.271 110.136 654.271 113.592C654.271 117.048 653.439 120.141 651.775 122.872C650.111 125.603 647.786 127.736 644.799 129.272C641.812 130.808 638.442 131.576 634.687 131.576ZM634.687 121.912C636.82 121.912 638.57 121.187 639.935 119.736C641.3 118.243 641.983 116.195 641.983 113.592C641.983 111.032 641.3 109.027 639.935 107.576C638.57 106.125 636.82 105.4 634.687 105.4C632.554 105.4 630.804 106.125 629.439 107.576C628.074 109.027 627.391 111.032 627.391 113.592C627.391 116.195 628.074 118.243 629.439 119.736C630.804 121.187 632.554 121.912 634.687 121.912Z" fill="white"/>
</svg>
