<svg width="420" height="422" viewBox="0 0 420 422" fill="none" xmlns="http://www.w3.org/2000/svg">
<path fill-rule="evenodd" clip-rule="evenodd" d="M358.639 61.7371C319.239 22.3371 266.939 0.637109 211.139 0.537109C96.1395 0.537109 2.63949 94.1371 2.53949 209.037C2.53949 245.837 12.1395 281.637 30.3395 313.337L0.739502 421.437L111.339 392.437C141.839 409.037 176.139 417.837 211.039 417.837H211.139C326.039 417.837 419.64 324.237 419.74 209.237C419.74 153.537 398.039 101.137 358.639 61.7371ZM211.139 382.637C179.939 382.637 149.439 374.237 122.839 358.437L116.539 354.637L50.9395 371.837L68.4395 307.837L64.3395 301.237C46.9395 273.637 37.8395 241.737 37.8395 209.037C37.8395 113.437 115.64 35.7371 211.24 35.7371C257.54 35.7371 301.039 53.8371 333.839 86.5371C366.539 119.337 384.539 162.837 384.539 209.137C384.439 304.837 306.639 382.637 211.139 382.637V382.637ZM306.24 252.737C301.04 250.137 275.439 237.537 270.639 235.737C265.839 234.037 262.34 233.137 258.94 238.337C255.44 243.537 245.44 255.337 242.44 258.737C239.44 262.237 236.339 262.637 231.139 260.037C225.939 257.437 209.14 251.937 189.24 234.137C173.74 220.337 163.34 203.237 160.24 198.037C157.24 192.837 159.939 190.037 162.539 187.437C164.839 185.137 167.739 181.337 170.339 178.337C172.939 175.337 173.839 173.137 175.539 169.637C177.239 166.137 176.439 163.137 175.139 160.537C173.839 157.937 163.439 132.237 159.039 121.837C154.839 111.637 150.539 113.037 147.339 112.937C144.339 112.737 140.839 112.737 137.339 112.737C133.839 112.737 128.24 114.037 123.44 119.237C118.64 124.437 105.24 137.037 105.24 162.737C105.24 188.437 123.939 213.137 126.539 216.637C129.139 220.137 163.239 272.737 215.539 295.337C227.939 300.737 237.64 303.937 245.24 306.337C257.74 310.337 269.039 309.737 278.039 308.437C288.039 306.937 308.84 295.837 313.24 283.637C317.54 271.437 317.54 261.037 316.24 258.837C314.94 256.637 311.44 255.337 306.24 252.737V252.737Z" fill="#25D366"/>
</svg>
